<svg xmlns="http://www.w3.org/2000/svg" width="880" height="460" font-family="system-ui, sans-serif" font-size="13">
<rect width="880" height="460" fill="#ffffff"/>
<text x="440.0" y="28" text-anchor="middle" font-size="17" font-weight="600">p95 latency by scenario × concurrency (log scale)</text>
<text x="20" y="215.0" text-anchor="middle" transform="rotate(-90 20 215.0)" font-size="12" fill="#555">latency (ms, log)</text>
<line x1="70" y1="370.0" x2="850" y2="370.0" stroke="#e5e7eb" stroke-width="1"/>
<text x="62" y="374.0" text-anchor="end" fill="#555">4.40</text>
<line x1="70" y1="292.5" x2="850" y2="292.5" stroke="#e5e7eb" stroke-width="1"/>
<text x="62" y="296.5" text-anchor="end" fill="#555">18</text>
<line x1="70" y1="215.0" x2="850" y2="215.0" stroke="#e5e7eb" stroke-width="1"/>
<text x="62" y="219.0" text-anchor="end" fill="#555">77</text>
<line x1="70" y1="137.5" x2="850" y2="137.5" stroke="#e5e7eb" stroke-width="1"/>
<text x="62" y="141.5" text-anchor="end" fill="#555">323</text>
<line x1="70" y1="60.0" x2="850" y2="60.0" stroke="#e5e7eb" stroke-width="1"/>
<text x="62" y="64.0" text-anchor="end" fill="#555">1,352</text>
<rect x="99.25" y="370.0" width="34.125" height="0.0" fill="#2563eb" opacity="0.9"/>
<text x="116.3125" y="366.0" text-anchor="middle" font-size="10" fill="#333">4.4</text>
<rect x="133.375" y="253.0309578271436" width="34.125" height="116.9690421728564" fill="#16a34a" opacity="0.9"/>
<text x="150.4375" y="249.0309578271436" text-anchor="middle" font-size="10" fill="#333">38.2</text>
<rect x="167.5" y="215.37530494243802" width="34.125" height="154.62469505756198" fill="#f59e0b" opacity="0.9"/>
<text x="184.5625" y="211.37530494243802" text-anchor="middle" font-size="10" fill="#333">76.6</text>
<text x="218.6875" y="366" text-anchor="middle" fill="#999" font-size="14">×</text>
<text x="167.5" y="392" text-anchor="middle" font-size="13" fill="#333">stage1</text>
<rect x="294.25" y="350.5733565033229" width="34.125" height="19.426643496677116" fill="#2563eb" opacity="0.9"/>
<text x="311.3125" y="346.5733565033229" text-anchor="middle" font-size="10" fill="#333">6.3</text>
<rect x="328.375" y="236.6525896669222" width="34.125" height="133.3474103330778" fill="#16a34a" opacity="0.9"/>
<text x="345.4375" y="232.6525896669222" text-anchor="middle" font-size="10" fill="#333">51.7</text>
<rect x="362.5" y="197.0338688647801" width="34.125" height="172.9661311352199" fill="#f59e0b" opacity="0.9"/>
<text x="379.5625" y="193.0338688647801" text-anchor="middle" font-size="10" fill="#333">108</text>
<rect x="396.625" y="214.25647459316104" width="34.125" height="155.74352540683896" fill="#dc2626" opacity="0.9"/>
<text x="413.6875" y="210.25647459316104" text-anchor="middle" font-size="10" fill="#333">78.2</text>
<text x="362.5" y="392" text-anchor="middle" font-size="13" fill="#333">stage2</text>
<rect x="489.25" y="324.4955609477723" width="34.125" height="45.504439052227724" fill="#2563eb" opacity="0.9"/>
<text x="506.3125" y="320.4955609477723" text-anchor="middle" font-size="10" fill="#333">10.2</text>
<rect x="523.375" y="102.00024148658036" width="34.125" height="267.99975851341964" fill="#16a34a" opacity="0.9"/>
<text x="540.4375" y="98.00024148658036" text-anchor="middle" font-size="10" fill="#333">622</text>
<rect x="557.5" y="69.86751444682055" width="34.125" height="300.13248555317944" fill="#f59e0b" opacity="0.9"/>
<text x="574.5625" y="65.86751444682055" text-anchor="middle" font-size="10" fill="#333">1,127</text>
<rect x="591.625" y="71.98328186783846" width="34.125" height="298.01671813216154" fill="#dc2626" opacity="0.9"/>
<text x="608.6875" y="67.98328186783846" text-anchor="middle" font-size="10" fill="#333">1,084</text>
<text x="557.5" y="392" text-anchor="middle" font-size="13" fill="#333">stage3</text>
<rect x="684.25" y="313.9251601185734" width="34.125" height="56.07483988142661" fill="#2563eb" opacity="0.9"/>
<text x="701.3125" y="309.9251601185734" text-anchor="middle" font-size="10" fill="#333">12.4</text>
<rect x="718.375" y="111.83471738319453" width="34.125" height="258.1652826168055" fill="#16a34a" opacity="0.9"/>
<text x="735.4375" y="107.83471738319453" text-anchor="middle" font-size="10" fill="#333">519</text>
<rect x="752.5" y="72.22857230723143" width="34.125" height="297.77142769276855" fill="#f59e0b" opacity="0.9"/>
<text x="769.5625" y="68.22857230723143" text-anchor="middle" font-size="10" fill="#333">1,079</text>
<rect x="786.625" y="84.7184233227325" width="34.125" height="285.2815766772675" fill="#dc2626" opacity="0.9"/>
<text x="803.6875" y="80.7184233227325" text-anchor="middle" font-size="10" fill="#333">856</text>
<text x="752.5" y="392" text-anchor="middle" font-size="13" fill="#333">stage4</text>
<line x1="70" y1="370" x2="850" y2="370" stroke="#333" stroke-width="1"/>
<rect x="70" y="420" width="14" height="14" fill="#2563eb"/>
<text x="90" y="431" font-size="12" fill="#333">c50</text>
<rect x="180" y="420" width="14" height="14" fill="#16a34a"/>
<text x="200" y="431" font-size="12" fill="#333">c500</text>
<rect x="290" y="420" width="14" height="14" fill="#f59e0b"/>
<text x="310" y="431" font-size="12" fill="#333">c1000</text>
<rect x="400" y="420" width="14" height="14" fill="#dc2626"/>
<text x="420" y="431" font-size="12" fill="#333">c1000-tuned</text>
</svg>