<svg xmlns="http://www.w3.org/2000/svg" width="880" height="460" font-family="system-ui, sans-serif" font-size="13">
<rect width="880" height="460" fill="#ffffff"/>
<text x="440.0" y="28" text-anchor="middle" font-size="17" font-weight="600">RPS by scenario × concurrency</text>
<text x="20" y="215.0" text-anchor="middle" transform="rotate(-90 20 215.0)" font-size="12" fill="#555">requests / sec</text>
<line x1="70" y1="370.0" x2="850" y2="370.0" stroke="#e5e7eb" stroke-width="1"/>
<text x="62" y="374.0" text-anchor="end" fill="#555">0.00</text>
<line x1="70" y1="292.5" x2="850" y2="292.5" stroke="#e5e7eb" stroke-width="1"/>
<text x="62" y="296.5" text-anchor="end" fill="#555">5,873</text>
<line x1="70" y1="215.0" x2="850" y2="215.0" stroke="#e5e7eb" stroke-width="1"/>
<text x="62" y="219.0" text-anchor="end" fill="#555">11,747</text>
<line x1="70" y1="137.5" x2="850" y2="137.5" stroke="#e5e7eb" stroke-width="1"/>
<text x="62" y="141.5" text-anchor="end" fill="#555">17,620</text>
<line x1="70" y1="60.0" x2="850" y2="60.0" stroke="#e5e7eb" stroke-width="1"/>
<text x="62" y="64.0" text-anchor="end" fill="#555">23,494</text>
<rect x="99.25" y="119.13701332208507" width="34.125" height="250.86298667791493" fill="#2563eb" opacity="0.9"/>
<text x="116.3125" y="115.13701332208507" text-anchor="middle" font-size="10" fill="#333">19,012</text>
<rect x="133.375" y="100.43478260869563" width="34.125" height="269.5652173913044" fill="#16a34a" opacity="0.9"/>
<text x="150.4375" y="96.43478260869563" text-anchor="middle" font-size="10" fill="#333">20,430</text>
<rect x="167.5" y="111.38445279290775" width="34.125" height="258.6155472070923" fill="#f59e0b" opacity="0.9"/>
<text x="184.5625" y="107.38445279290775" text-anchor="middle" font-size="10" fill="#333">19,600</text>
<text x="218.6875" y="366" text-anchor="middle" fill="#999" font-size="14">×</text>
<text x="167.5" y="392" text-anchor="middle" font-size="13" fill="#333">stage1</text>
<rect x="294.25" y="192.57228756616166" width="34.125" height="177.42771243383834" fill="#2563eb" opacity="0.9"/>
<text x="311.3125" y="188.57228756616166" text-anchor="middle" font-size="10" fill="#333">13,447</text>
<rect x="328.375" y="165.12050372880284" width="34.125" height="204.87949627119716" fill="#16a34a" opacity="0.9"/>
<text x="345.4375" y="161.12050372880284" text-anchor="middle" font-size="10" fill="#333">15,527</text>
<rect x="362.5" y="180.22594369169826" width="34.125" height="189.77405630830174" fill="#f59e0b" opacity="0.9"/>
<text x="379.5625" y="176.22594369169826" text-anchor="middle" font-size="10" fill="#333">14,382</text>
<rect x="396.625" y="140.26969371172865" width="34.125" height="229.73030628827135" fill="#dc2626" opacity="0.9"/>
<text x="413.6875" y="136.26969371172865" text-anchor="middle" font-size="10" fill="#333">17,411</text>
<text x="362.5" y="392" text-anchor="middle" font-size="13" fill="#333">stage2</text>
<rect x="489.25" y="260.7194779362778" width="34.125" height="109.28052206372217" fill="#2563eb" opacity="0.9"/>
<text x="506.3125" y="256.7194779362778" text-anchor="middle" font-size="10" fill="#333">8,282</text>
<rect x="523.375" y="331.04053149660336" width="34.125" height="38.959468503396636" fill="#16a34a" opacity="0.9"/>
<text x="540.4375" y="327.04053149660336" text-anchor="middle" font-size="10" fill="#333">2,953</text>
<rect x="557.5" y="334.2546651970305" width="34.125" height="35.74533480296952" fill="#f59e0b" opacity="0.9"/>
<text x="574.5625" y="330.2546651970305" text-anchor="middle" font-size="10" fill="#333">2,709</text>
<rect x="591.625" y="335.132732260028" width="34.125" height="34.86726773997202" fill="#dc2626" opacity="0.9"/>
<text x="608.6875" y="331.132732260028" text-anchor="middle" font-size="10" fill="#333">2,642</text>
<text x="557.5" y="392" text-anchor="middle" font-size="13" fill="#333">stage3</text>
<rect x="684.25" y="277.2228081581621" width="34.125" height="92.77719184183792" fill="#2563eb" opacity="0.9"/>
<text x="701.3125" y="273.2228081581621" text-anchor="middle" font-size="10" fill="#333">7,031</text>
<rect x="718.375" y="329.51500180132683" width="34.125" height="40.48499819867317" fill="#16a34a" opacity="0.9"/>
<text x="735.4375" y="325.51500180132683" text-anchor="middle" font-size="10" fill="#333">3,068</text>
<rect x="752.5" y="335.8031355257895" width="34.125" height="34.196864474210486" fill="#f59e0b" opacity="0.9"/>
<text x="769.5625" y="331.8031355257895" text-anchor="middle" font-size="10" fill="#333">2,592</text>
<rect x="786.625" y="332.39316988481784" width="34.125" height="37.60683011518216" fill="#dc2626" opacity="0.9"/>
<text x="803.6875" y="328.39316988481784" text-anchor="middle" font-size="10" fill="#333">2,850</text>
<text x="752.5" y="392" text-anchor="middle" font-size="13" fill="#333">stage4</text>
<line x1="70" y1="370" x2="850" y2="370" stroke="#333" stroke-width="1"/>
<rect x="70" y="420" width="14" height="14" fill="#2563eb"/>
<text x="90" y="431" font-size="12" fill="#333">c50</text>
<rect x="180" y="420" width="14" height="14" fill="#16a34a"/>
<text x="200" y="431" font-size="12" fill="#333">c500</text>
<rect x="290" y="420" width="14" height="14" fill="#f59e0b"/>
<text x="310" y="431" font-size="12" fill="#333">c1000</text>
<rect x="400" y="420" width="14" height="14" fill="#dc2626"/>
<text x="420" y="431" font-size="12" fill="#333">c1000-tuned</text>
</svg>