<svg xmlns="http://www.w3.org/2000/svg" width="880" height="460" font-family="system-ui, sans-serif" font-size="13">
<rect width="880" height="460" fill="#ffffff"/>
<text x="440.0" y="28" text-anchor="middle" font-size="17" font-weight="600">p95 latency by scenario × concurrency (log scale)</text>
<text x="20" y="215.0" text-anchor="middle" transform="rotate(-90 20 215.0)" font-size="12" fill="#555">latency (ms, log)</text>
<line x1="70" y1="370.0" x2="850" y2="370.0" stroke="#e5e7eb" stroke-width="1"/>
<text x="62" y="374.0" text-anchor="end" fill="#555">1.60</text>
<line x1="70" y1="292.5" x2="850" y2="292.5" stroke="#e5e7eb" stroke-width="1"/>
<text x="62" y="296.5" text-anchor="end" fill="#555">5.30</text>
<line x1="70" y1="215.0" x2="850" y2="215.0" stroke="#e5e7eb" stroke-width="1"/>
<text x="62" y="219.0" text-anchor="end" fill="#555">18</text>
<line x1="70" y1="137.5" x2="850" y2="137.5" stroke="#e5e7eb" stroke-width="1"/>
<text x="62" y="141.5" text-anchor="end" fill="#555">58</text>
<line x1="70" y1="60.0" x2="850" y2="60.0" stroke="#e5e7eb" stroke-width="1"/>
<text x="62" y="64.0" text-anchor="end" fill="#555">192</text>
<rect x="99.25" y="370.0" width="27.3" height="0.0" fill="#2563eb" opacity="0.9"/>
<text x="112.9" y="366.0" text-anchor="middle" font-size="10" fill="#333">1.6</text>
<rect x="126.55" y="296.2288993426722" width="27.3" height="73.77110065732779" fill="#16a34a" opacity="0.9"/>
<text x="140.2" y="292.2288993426722" text-anchor="middle" font-size="10" fill="#333">5.0</text>
<rect x="153.85" y="262.6403109360337" width="27.3" height="107.3596890639663" fill="#f59e0b" opacity="0.9"/>
<text x="167.5" y="258.6403109360337" text-anchor="middle" font-size="10" fill="#333">8.4</text>
<rect x="181.15" y="224.2432184686506" width="27.3" height="145.7567815313494" fill="#dc2626" opacity="0.9"/>
<text x="194.8" y="220.2432184686506" text-anchor="middle" font-size="10" fill="#333">15.2</text>
<rect x="208.45" y="170.9878191329813" width="27.3" height="199.0121808670187" fill="#7c3aed" opacity="0.9"/>
<text x="222.1" y="166.9878191329813" text-anchor="middle" font-size="10" fill="#333">34.6</text>
<text x="167.5" y="392" text-anchor="middle" font-size="13" fill="#333">cache_redirect</text>
<rect x="294.25" y="315.7235331587101" width="27.3" height="54.2764668412899" fill="#2563eb" opacity="0.9"/>
<text x="307.9" y="311.7235331587101" text-anchor="middle" font-size="10" fill="#333">3.7</text>
<rect x="321.55" y="238.4777169229328" width="27.3" height="131.5222830770672" fill="#16a34a" opacity="0.9"/>
<text x="335.2" y="234.4777169229328" text-anchor="middle" font-size="10" fill="#333">12.2</text>
<rect x="348.85" y="172.50235884732223" width="27.3" height="197.49764115267777" fill="#f59e0b" opacity="0.9"/>
<text x="362.5" y="168.50235884732223" text-anchor="middle" font-size="10" fill="#333">33.8</text>
<rect x="376.15" y="111.36513749412275" width="27.3" height="258.63486250587727" fill="#dc2626" opacity="0.9"/>
<text x="389.79999999999995" y="107.36513749412275" text-anchor="middle" font-size="10" fill="#333">86.9</text>
<rect x="403.45" y="90.41625811401882" width="27.3" height="279.58374188598117" fill="#7c3aed" opacity="0.9"/>
<text x="417.09999999999997" y="86.41625811401882" text-anchor="middle" font-size="10" fill="#333">120</text>
<text x="362.5" y="392" text-anchor="middle" font-size="13" fill="#333">cache_shorten</text>
<rect x="489.25" y="370.0" width="27.3" height="0.0" fill="#2563eb" opacity="0.9"/>
<text x="502.9" y="366.0" text-anchor="middle" font-size="10" fill="#333">1.6</text>
<rect x="516.55" y="300.2349369906945" width="27.3" height="69.76506300930549" fill="#16a34a" opacity="0.9"/>
<text x="530.1999999999999" y="296.2349369906945" text-anchor="middle" font-size="10" fill="#333">4.7</text>
<rect x="543.85" y="259.6284367045693" width="27.3" height="110.37156329543069" fill="#f59e0b" opacity="0.9"/>
<text x="557.5" y="255.6284367045693" text-anchor="middle" font-size="10" fill="#333">8.8</text>
<rect x="571.15" y="217.37921675995835" width="27.3" height="152.62078324004165" fill="#dc2626" opacity="0.9"/>
<text x="584.8" y="213.37921675995835" text-anchor="middle" font-size="10" fill="#333">16.9</text>
<rect x="598.45" y="157.82578553832127" width="27.3" height="212.17421446167873" fill="#7c3aed" opacity="0.9"/>
<text x="612.1" y="153.82578553832127" text-anchor="middle" font-size="10" fill="#333">42.4</text>
<text x="557.5" y="392" text-anchor="middle" font-size="13" fill="#333">mvp_redirect</text>
<rect x="684.25" y="336.1230208253852" width="27.3" height="33.8769791746148" fill="#2563eb" opacity="0.9"/>
<text x="697.9" y="332.1230208253852" text-anchor="middle" font-size="10" fill="#333">2.7</text>
<rect x="711.55" y="232.403551052357" width="27.3" height="137.596448947643" fill="#16a34a" opacity="0.9"/>
<text x="725.1999999999999" y="228.403551052357" text-anchor="middle" font-size="10" fill="#333">13.4</text>
<rect x="738.85" y="170.9878191329813" width="27.3" height="199.0121808670187" fill="#f59e0b" opacity="0.9"/>
<text x="752.5" y="166.9878191329813" text-anchor="middle" font-size="10" fill="#333">34.6</text>
<rect x="766.15" y="107.6727735540411" width="27.3" height="262.3272264459589" fill="#dc2626" opacity="0.9"/>
<text x="779.8" y="103.6727735540411" text-anchor="middle" font-size="10" fill="#333">92.0</text>
<rect x="793.45" y="71.80415765673774" width="27.3" height="298.19584234326226" fill="#7c3aed" opacity="0.9"/>
<text x="807.1" y="67.80415765673774" text-anchor="middle" font-size="10" fill="#333">160</text>
<text x="752.5" y="392" text-anchor="middle" font-size="13" fill="#333">mvp_shorten</text>
<line x1="70" y1="370" x2="850" y2="370" stroke="#333" stroke-width="1"/>
<rect x="70" y="420" width="14" height="14" fill="#2563eb"/>
<text x="90" y="431" font-size="12" fill="#333">c10</text>
<rect x="180" y="420" width="14" height="14" fill="#16a34a"/>
<text x="200" y="431" font-size="12" fill="#333">c50</text>
<rect x="290" y="420" width="14" height="14" fill="#f59e0b"/>
<text x="310" y="431" font-size="12" fill="#333">c100</text>
<rect x="400" y="420" width="14" height="14" fill="#dc2626"/>
<text x="420" y="431" font-size="12" fill="#333">c200</text>
<rect x="510" y="420" width="14" height="14" fill="#7c3aed"/>
<text x="530" y="431" font-size="12" fill="#333">c500</text>
</svg>