<svg xmlns="http://www.w3.org/2000/svg" width="880" height="460" font-family="system-ui, sans-serif" font-size="13">
<rect width="880" height="460" fill="#ffffff"/>
<text x="440.0" y="28" text-anchor="middle" font-size="17" font-weight="600">p95 latency by scenario × concurrency (log scale)</text>
<text x="20" y="215.0" text-anchor="middle" transform="rotate(-90 20 215.0)" font-size="12" fill="#555">latency (ms, log)</text>
<line x1="70" y1="370.0" x2="850" y2="370.0" stroke="#e5e7eb" stroke-width="1"/>
<text x="62" y="374.0" text-anchor="end" fill="#555">1.60</text>
<line x1="70" y1="292.5" x2="850" y2="292.5" stroke="#e5e7eb" stroke-width="1"/>
<text x="62" y="296.5" text-anchor="end" fill="#555">5.30</text>
<line x1="70" y1="215.0" x2="850" y2="215.0" stroke="#e5e7eb" stroke-width="1"/>
<text x="62" y="219.0" text-anchor="end" fill="#555">18</text>
<line x1="70" y1="137.5" x2="850" y2="137.5" stroke="#e5e7eb" stroke-width="1"/>
<text x="62" y="141.5" text-anchor="end" fill="#555">58</text>
<line x1="70" y1="60.0" x2="850" y2="60.0" stroke="#e5e7eb" stroke-width="1"/>
<text x="62" y="64.0" text-anchor="end" fill="#555">192</text>
<rect x="128.5" y="370.0" width="54.6" height="0.0" fill="#2563eb" opacity="0.9"/>
<text x="155.8" y="366.0" text-anchor="middle" font-size="10" fill="#333">1.6</text>
<rect x="183.1" y="300.2349369906945" width="54.6" height="69.76506300930549" fill="#16a34a" opacity="0.9"/>
<text x="210.4" y="296.2349369906945" text-anchor="middle" font-size="10" fill="#333">4.7</text>
<rect x="237.7" y="259.6284367045693" width="54.6" height="110.37156329543069" fill="#f59e0b" opacity="0.9"/>
<text x="265.0" y="255.6284367045693" text-anchor="middle" font-size="10" fill="#333">8.8</text>
<rect x="292.3" y="217.37921675995835" width="54.6" height="152.62078324004165" fill="#dc2626" opacity="0.9"/>
<text x="319.6" y="213.37921675995835" text-anchor="middle" font-size="10" fill="#333">16.9</text>
<rect x="346.9" y="157.82578553832127" width="54.6" height="212.17421446167873" fill="#7c3aed" opacity="0.9"/>
<text x="374.2" y="153.82578553832127" text-anchor="middle" font-size="10" fill="#333">42.4</text>
<text x="265.0" y="392" text-anchor="middle" font-size="13" fill="#333">mvp_redirect</text>
<rect x="518.5" y="336.1230208253852" width="54.6" height="33.8769791746148" fill="#2563eb" opacity="0.9"/>
<text x="545.8" y="332.1230208253852" text-anchor="middle" font-size="10" fill="#333">2.7</text>
<rect x="573.1" y="232.403551052357" width="54.6" height="137.596448947643" fill="#16a34a" opacity="0.9"/>
<text x="600.4" y="228.403551052357" text-anchor="middle" font-size="10" fill="#333">13.4</text>
<rect x="627.7" y="170.9878191329813" width="54.6" height="199.0121808670187" fill="#f59e0b" opacity="0.9"/>
<text x="655.0" y="166.9878191329813" text-anchor="middle" font-size="10" fill="#333">34.6</text>
<rect x="682.3" y="107.6727735540411" width="54.6" height="262.3272264459589" fill="#dc2626" opacity="0.9"/>
<text x="709.5999999999999" y="103.6727735540411" text-anchor="middle" font-size="10" fill="#333">92.0</text>
<rect x="736.9" y="71.80415765673774" width="54.6" height="298.19584234326226" fill="#7c3aed" opacity="0.9"/>
<text x="764.1999999999999" y="67.80415765673774" text-anchor="middle" font-size="10" fill="#333">160</text>
<text x="655.0" y="392" text-anchor="middle" font-size="13" fill="#333">mvp_shorten</text>
<line x1="70" y1="370" x2="850" y2="370" stroke="#333" stroke-width="1"/>
<rect x="70" y="420" width="14" height="14" fill="#2563eb"/>
<text x="90" y="431" font-size="12" fill="#333">c10</text>
<rect x="180" y="420" width="14" height="14" fill="#16a34a"/>
<text x="200" y="431" font-size="12" fill="#333">c50</text>
<rect x="290" y="420" width="14" height="14" fill="#f59e0b"/>
<text x="310" y="431" font-size="12" fill="#333">c100</text>
<rect x="400" y="420" width="14" height="14" fill="#dc2626"/>
<text x="420" y="431" font-size="12" fill="#333">c200</text>
<rect x="510" y="420" width="14" height="14" fill="#7c3aed"/>
<text x="530" y="431" font-size="12" fill="#333">c500</text>
</svg>