<svg xmlns="http://www.w3.org/2000/svg" width="880" height="460" font-family="system-ui, sans-serif" font-size="13">
<rect width="880" height="460" fill="#ffffff"/>
<text x="440.0" y="28" text-anchor="middle" font-size="17" font-weight="600">RPS by scenario × concurrency</text>
<text x="20" y="215.0" text-anchor="middle" transform="rotate(-90 20 215.0)" font-size="12" fill="#555">requests / sec</text>
<line x1="70" y1="370.0" x2="850" y2="370.0" stroke="#e5e7eb" stroke-width="1"/>
<text x="62" y="374.0" text-anchor="end" fill="#555">0.00</text>
<line x1="70" y1="292.5" x2="850" y2="292.5" stroke="#e5e7eb" stroke-width="1"/>
<text x="62" y="296.5" text-anchor="end" fill="#555">6,194</text>
<line x1="70" y1="215.0" x2="850" y2="215.0" stroke="#e5e7eb" stroke-width="1"/>
<text x="62" y="219.0" text-anchor="end" fill="#555">12,387</text>
<line x1="70" y1="137.5" x2="850" y2="137.5" stroke="#e5e7eb" stroke-width="1"/>
<text x="62" y="141.5" text-anchor="end" fill="#555">18,581</text>
<line x1="70" y1="60.0" x2="850" y2="60.0" stroke="#e5e7eb" stroke-width="1"/>
<text x="62" y="64.0" text-anchor="end" fill="#555">24,774</text>
<rect x="99.25" y="246.66741543033157" width="27.3" height="123.33258456966843" fill="#2563eb" opacity="0.9"/>
<text x="112.9" y="242.66741543033157" text-anchor="middle" font-size="10" fill="#333">9,856</text>
<rect x="126.55" y="169.0113668488791" width="27.3" height="200.9886331511209" fill="#16a34a" opacity="0.9"/>
<text x="140.2" y="165.0113668488791" text-anchor="middle" font-size="10" fill="#333">16,062</text>
<rect x="153.85" y="137.40785506385726" width="27.3" height="232.59214493614274" fill="#f59e0b" opacity="0.9"/>
<text x="167.5" y="133.40785506385726" text-anchor="middle" font-size="10" fill="#333">18,588</text>
<rect x="181.15" y="121.05518526822057" width="27.3" height="248.94481473177945" fill="#dc2626" opacity="0.9"/>
<text x="194.8" y="117.05518526822057" text-anchor="middle" font-size="10" fill="#333">19,895</text>
<rect x="208.45" y="100.43478260869566" width="27.3" height="269.5652173913044" fill="#7c3aed" opacity="0.9"/>
<text x="222.1" y="96.43478260869566" text-anchor="middle" font-size="10" fill="#333">21,543</text>
<text x="167.5" y="392" text-anchor="middle" font-size="13" fill="#333">cache_redirect</text>
<rect x="294.25" y="313.59017996927696" width="27.3" height="56.40982003072304" fill="#2563eb" opacity="0.9"/>
<text x="307.9" y="309.59017996927696" text-anchor="middle" font-size="10" fill="#333">4,508</text>
<rect x="321.55" y="279.58950708907025" width="27.3" height="90.41049291092975" fill="#16a34a" opacity="0.9"/>
<text x="335.2" y="275.58950708907025" text-anchor="middle" font-size="10" fill="#333">7,225</text>
<rect x="348.85" y="283.2596495653411" width="27.3" height="86.74035043465892" fill="#f59e0b" opacity="0.9"/>
<text x="362.5" y="279.2596495653411" text-anchor="middle" font-size="10" fill="#333">6,932</text>
<rect x="376.15" y="291.14130415760883" width="27.3" height="78.85869584239117" fill="#dc2626" opacity="0.9"/>
<text x="389.79999999999995" y="287.14130415760883" text-anchor="middle" font-size="10" fill="#333">6,302</text>
<rect x="403.45" y="279.51307164760715" width="27.3" height="90.48692835239285" fill="#7c3aed" opacity="0.9"/>
<text x="417.09999999999997" y="275.51307164760715" text-anchor="middle" font-size="10" fill="#333">7,231</text>
<text x="362.5" y="392" text-anchor="middle" font-size="13" fill="#333">cache_shorten</text>
<rect x="489.25" y="243.46415166695172" width="27.3" height="126.53584833304828" fill="#2563eb" opacity="0.9"/>
<text x="502.9" y="239.46415166695172" text-anchor="middle" font-size="10" fill="#333">10,112</text>
<rect x="516.55" y="157.63149165117332" width="27.3" height="212.36850834882668" fill="#16a34a" opacity="0.9"/>
<text x="530.1999999999999" y="153.63149165117332" text-anchor="middle" font-size="10" fill="#333">16,972</text>
<rect x="543.85" y="145.71336379310912" width="27.3" height="224.28663620689088" fill="#f59e0b" opacity="0.9"/>
<text x="557.5" y="141.71336379310912" text-anchor="middle" font-size="10" fill="#333">17,924</text>
<rect x="571.15" y="139.40606407199755" width="27.3" height="230.59393592800245" fill="#dc2626" opacity="0.9"/>
<text x="584.8" y="135.40606407199755" text-anchor="middle" font-size="10" fill="#333">18,428</text>
<rect x="598.45" y="143.0987386427993" width="27.3" height="226.9012613572007" fill="#7c3aed" opacity="0.9"/>
<text x="612.1" y="139.0987386427993" text-anchor="middle" font-size="10" fill="#333">18,133</text>
<text x="557.5" y="392" text-anchor="middle" font-size="13" fill="#333">mvp_redirect</text>
<rect x="684.25" y="299.6068987449113" width="27.3" height="70.39310125508871" fill="#2563eb" opacity="0.9"/>
<text x="697.9" y="295.6068987449113" text-anchor="middle" font-size="10" fill="#333">5,626</text>
<rect x="711.55" y="271.75725743312546" width="27.3" height="98.24274256687454" fill="#16a34a" opacity="0.9"/>
<text x="725.1999999999999" y="267.75725743312546" text-anchor="middle" font-size="10" fill="#333">7,851</text>
<rect x="738.85" y="273.290044237401" width="27.3" height="96.70995576259901" fill="#f59e0b" opacity="0.9"/>
<text x="752.5" y="269.290044237401" text-anchor="middle" font-size="10" fill="#333">7,729</text>
<rect x="766.15" y="286.2893622699569" width="27.3" height="83.71063773004312" fill="#dc2626" opacity="0.9"/>
<text x="779.8" y="282.2893622699569" text-anchor="middle" font-size="10" fill="#333">6,690</text>
<rect x="793.45" y="279.65858741021054" width="27.3" height="90.34141258978946" fill="#7c3aed" opacity="0.9"/>
<text x="807.1" y="275.65858741021054" text-anchor="middle" font-size="10" fill="#333">7,220</text>
<text x="752.5" y="392" text-anchor="middle" font-size="13" fill="#333">mvp_shorten</text>
<line x1="70" y1="370" x2="850" y2="370" stroke="#333" stroke-width="1"/>
<rect x="70" y="420" width="14" height="14" fill="#2563eb"/>
<text x="90" y="431" font-size="12" fill="#333">c10</text>
<rect x="180" y="420" width="14" height="14" fill="#16a34a"/>
<text x="200" y="431" font-size="12" fill="#333">c50</text>
<rect x="290" y="420" width="14" height="14" fill="#f59e0b"/>
<text x="310" y="431" font-size="12" fill="#333">c100</text>
<rect x="400" y="420" width="14" height="14" fill="#dc2626"/>
<text x="420" y="431" font-size="12" fill="#333">c200</text>
<rect x="510" y="420" width="14" height="14" fill="#7c3aed"/>
<text x="530" y="431" font-size="12" fill="#333">c500</text>
</svg>