<svg xmlns="http://www.w3.org/2000/svg" width="880" height="460" font-family="system-ui, sans-serif" font-size="13">
<rect width="880" height="460" fill="#ffffff"/>
<text x="440.0" y="28" text-anchor="middle" font-size="17" font-weight="600">RPS by scenario × concurrency</text>
<text x="20" y="215.0" text-anchor="middle" transform="rotate(-90 20 215.0)" font-size="12" fill="#555">requests / sec</text>
<line x1="70" y1="370.0" x2="850" y2="370.0" stroke="#e5e7eb" stroke-width="1"/>
<text x="62" y="374.0" text-anchor="end" fill="#555">0.00</text>
<line x1="70" y1="292.5" x2="850" y2="292.5" stroke="#e5e7eb" stroke-width="1"/>
<text x="62" y="296.5" text-anchor="end" fill="#555">5,298</text>
<line x1="70" y1="215.0" x2="850" y2="215.0" stroke="#e5e7eb" stroke-width="1"/>
<text x="62" y="219.0" text-anchor="end" fill="#555">10,596</text>
<line x1="70" y1="137.5" x2="850" y2="137.5" stroke="#e5e7eb" stroke-width="1"/>
<text x="62" y="141.5" text-anchor="end" fill="#555">15,894</text>
<line x1="70" y1="60.0" x2="850" y2="60.0" stroke="#e5e7eb" stroke-width="1"/>
<text x="62" y="64.0" text-anchor="end" fill="#555">21,193</text>
<rect x="128.5" y="222.07909598133918" width="54.6" height="147.92090401866082" fill="#2563eb" opacity="0.9"/>
<text x="155.8" y="218.07909598133918" text-anchor="middle" font-size="10" fill="#333">10,112</text>
<rect x="183.1" y="121.74037907921141" width="54.6" height="248.2596209207886" fill="#16a34a" opacity="0.9"/>
<text x="210.4" y="117.74037907921141" text-anchor="middle" font-size="10" fill="#333">16,972</text>
<rect x="237.7" y="107.80804077193028" width="54.6" height="262.1919592280697" fill="#f59e0b" opacity="0.9"/>
<text x="265.0" y="103.80804077193028" text-anchor="middle" font-size="10" fill="#333">17,924</text>
<rect x="292.3" y="100.43478260869563" width="54.6" height="269.5652173913044" fill="#dc2626" opacity="0.9"/>
<text x="319.6" y="96.43478260869563" text-anchor="middle" font-size="10" fill="#333">18,428</text>
<rect x="346.9" y="104.75153369509155" width="54.6" height="265.24846630490845" fill="#7c3aed" opacity="0.9"/>
<text x="374.2" y="100.75153369509155" text-anchor="middle" font-size="10" fill="#333">18,133</text>
<text x="265.0" y="392" text-anchor="middle" font-size="13" fill="#333">mvp_redirect</text>
<rect x="518.5" y="287.7101879704211" width="54.6" height="82.28981202957891" fill="#2563eb" opacity="0.9"/>
<text x="545.8" y="283.7101879704211" text-anchor="middle" font-size="10" fill="#333">5,626</text>
<rect x="573.1" y="255.15384782093255" width="54.6" height="114.84615217906745" fill="#16a34a" opacity="0.9"/>
<text x="600.4" y="251.15384782093255" text-anchor="middle" font-size="10" fill="#333">7,851</text>
<rect x="627.7" y="256.9456816193637" width="54.6" height="113.05431838063629" fill="#f59e0b" opacity="0.9"/>
<text x="655.0" y="252.9456816193637" text-anchor="middle" font-size="10" fill="#333">7,729</text>
<rect x="682.3" y="272.1419354899716" width="54.6" height="97.85806451002838" fill="#dc2626" opacity="0.9"/>
<text x="709.5999999999999" y="268.1419354899716" text-anchor="middle" font-size="10" fill="#333">6,690</text>
<rect x="736.9" y="264.3905336183353" width="54.6" height="105.60946638166467" fill="#7c3aed" opacity="0.9"/>
<text x="764.1999999999999" y="260.3905336183353" text-anchor="middle" font-size="10" fill="#333">7,220</text>
<text x="655.0" y="392" text-anchor="middle" font-size="13" fill="#333">mvp_shorten</text>
<line x1="70" y1="370" x2="850" y2="370" stroke="#333" stroke-width="1"/>
<rect x="70" y="420" width="14" height="14" fill="#2563eb"/>
<text x="90" y="431" font-size="12" fill="#333">c10</text>
<rect x="180" y="420" width="14" height="14" fill="#16a34a"/>
<text x="200" y="431" font-size="12" fill="#333">c50</text>
<rect x="290" y="420" width="14" height="14" fill="#f59e0b"/>
<text x="310" y="431" font-size="12" fill="#333">c100</text>
<rect x="400" y="420" width="14" height="14" fill="#dc2626"/>
<text x="420" y="431" font-size="12" fill="#333">c200</text>
<rect x="510" y="420" width="14" height="14" fill="#7c3aed"/>
<text x="530" y="431" font-size="12" fill="#333">c500</text>
</svg>