<svg xmlns="http://www.w3.org/2000/svg" width="880" height="460" font-family="system-ui, sans-serif" font-size="13">
<rect width="880" height="460" fill="#ffffff"/>
<text x="440.0" y="28" text-anchor="middle" font-size="17" font-weight="600">RPS by scenario × concurrency</text>
<text x="20" y="215.0" text-anchor="middle" transform="rotate(-90 20 215.0)" font-size="12" fill="#555">requests / sec</text>
<line x1="70" y1="370.0" x2="850" y2="370.0" stroke="#e5e7eb" stroke-width="1"/>
<text x="62" y="374.0" text-anchor="end" fill="#555">0.00</text>
<line x1="70" y1="292.5" x2="850" y2="292.5" stroke="#e5e7eb" stroke-width="1"/>
<text x="62" y="296.5" text-anchor="end" fill="#555">6,194</text>
<line x1="70" y1="215.0" x2="850" y2="215.0" stroke="#e5e7eb" stroke-width="1"/>
<text x="62" y="219.0" text-anchor="end" fill="#555">12,387</text>
<line x1="70" y1="137.5" x2="850" y2="137.5" stroke="#e5e7eb" stroke-width="1"/>
<text x="62" y="141.5" text-anchor="end" fill="#555">18,581</text>
<line x1="70" y1="60.0" x2="850" y2="60.0" stroke="#e5e7eb" stroke-width="1"/>
<text x="62" y="64.0" text-anchor="end" fill="#555">24,774</text>
<rect x="86.71428571428572" y="246.66741543033157" width="15.6" height="123.33258456966843" fill="#2563eb" opacity="0.9"/>
<text x="94.51428571428572" y="242.66741543033157" text-anchor="middle" font-size="10" fill="#333">9,856</text>
<rect x="102.31428571428572" y="169.0113668488791" width="15.6" height="200.9886331511209" fill="#16a34a" opacity="0.9"/>
<text x="110.11428571428571" y="165.0113668488791" text-anchor="middle" font-size="10" fill="#333">16,062</text>
<rect x="117.91428571428573" y="137.40785506385726" width="15.6" height="232.59214493614274" fill="#f59e0b" opacity="0.9"/>
<text x="125.71428571428572" y="133.40785506385726" text-anchor="middle" font-size="10" fill="#333">18,588</text>
<rect x="133.51428571428573" y="121.05518526822057" width="15.6" height="248.94481473177945" fill="#dc2626" opacity="0.9"/>
<text x="141.31428571428575" y="117.05518526822057" text-anchor="middle" font-size="10" fill="#333">19,895</text>
<rect x="149.11428571428573" y="100.43478260869566" width="15.6" height="269.5652173913044" fill="#7c3aed" opacity="0.9"/>
<text x="156.91428571428574" y="96.43478260869566" text-anchor="middle" font-size="10" fill="#333">21,543</text>
<text x="125.71428571428572" y="392" text-anchor="middle" font-size="13" fill="#333">cache_redirect</text>
<rect x="198.14285714285717" y="313.59017996927696" width="15.6" height="56.40982003072304" fill="#2563eb" opacity="0.9"/>
<text x="205.94285714285718" y="309.59017996927696" text-anchor="middle" font-size="10" fill="#333">4,508</text>
<rect x="213.74285714285716" y="279.58950708907025" width="15.6" height="90.41049291092975" fill="#16a34a" opacity="0.9"/>
<text x="221.54285714285717" y="275.58950708907025" text-anchor="middle" font-size="10" fill="#333">7,225</text>
<rect x="229.34285714285716" y="283.2596495653411" width="15.6" height="86.74035043465892" fill="#f59e0b" opacity="0.9"/>
<text x="237.14285714285717" y="279.2596495653411" text-anchor="middle" font-size="10" fill="#333">6,932</text>
<rect x="244.94285714285718" y="291.14130415760883" width="15.6" height="78.85869584239117" fill="#dc2626" opacity="0.9"/>
<text x="252.7428571428572" y="287.14130415760883" text-anchor="middle" font-size="10" fill="#333">6,302</text>
<rect x="260.54285714285714" y="279.51307164760715" width="15.6" height="90.48692835239285" fill="#7c3aed" opacity="0.9"/>
<text x="268.34285714285716" y="275.51307164760715" text-anchor="middle" font-size="10" fill="#333">7,231</text>
<text x="237.14285714285714" y="392" text-anchor="middle" font-size="13" fill="#333">cache_shorten</text>
<rect x="309.5714285714286" y="319.53488026677013" width="15.6" height="50.46511973322987" fill="#2563eb" opacity="0.9"/>
<text x="317.3714285714286" y="315.53488026677013" text-anchor="middle" font-size="10" fill="#333">4,033</text>
<rect x="325.17142857142863" y="311.7654944913796" width="15.6" height="58.23450550862037" fill="#16a34a" opacity="0.9"/>
<text x="332.97142857142865" y="307.7654944913796" text-anchor="middle" font-size="10" fill="#333">4,654</text>
<rect x="340.7714285714286" y="300.7033134428749" width="15.6" height="69.2966865571251" fill="#f59e0b" opacity="0.9"/>
<text x="348.5714285714286" y="296.7033134428749" text-anchor="middle" font-size="10" fill="#333">5,538</text>
<rect x="356.3714285714286" y="301.6865621444322" width="15.6" height="68.31343785556783" fill="#dc2626" opacity="0.9"/>
<text x="364.17142857142863" y="297.6865621444322" text-anchor="middle" font-size="10" fill="#333">5,459</text>
<rect x="371.9714285714286" y="303.3536843778499" width="15.6" height="66.6463156221501" fill="#7c3aed" opacity="0.9"/>
<text x="379.7714285714286" y="299.3536843778499" text-anchor="middle" font-size="10" fill="#333">5,326</text>
<text x="348.57142857142856" y="392" text-anchor="middle" font-size="13" fill="#333">hash-unique_shorten</text>
<rect x="421.0" y="254.05350283681955" width="15.6" height="115.94649716318045" fill="#2563eb" opacity="0.9"/>
<text x="428.8" y="250.05350283681955" text-anchor="middle" font-size="10" fill="#333">9,266</text>
<rect x="436.6" y="175.97349500948417" width="15.6" height="194.02650499051583" fill="#16a34a" opacity="0.9"/>
<text x="444.40000000000003" y="171.97349500948417" text-anchor="middle" font-size="10" fill="#333">15,506</text>
<rect x="452.2" y="137.59959246470572" width="15.6" height="232.40040753529428" fill="#f59e0b" opacity="0.9"/>
<text x="460.0" y="133.59959246470572" text-anchor="middle" font-size="10" fill="#333">18,573</text>
<rect x="467.8" y="128.62499802461667" width="15.6" height="241.37500197538333" fill="#dc2626" opacity="0.9"/>
<text x="475.6" y="124.62499802461667" text-anchor="middle" font-size="10" fill="#333">19,290</text>
<rect x="483.4" y="109.42737194251768" width="15.6" height="260.57262805748235" fill="#7c3aed" opacity="0.9"/>
<text x="491.2" y="105.42737194251768" text-anchor="middle" font-size="10" fill="#333">20,824</text>
<text x="460.0" y="392" text-anchor="middle" font-size="13" fill="#333">hash_redirect</text>
<rect x="532.4285714285714" y="314.94930434940756" width="15.6" height="55.050695650592445" fill="#2563eb" opacity="0.9"/>
<text x="540.2285714285714" y="310.94930434940756" text-anchor="middle" font-size="10" fill="#333">4,399</text>
<rect x="548.0285714285715" y="304.86536556550675" width="15.6" height="65.13463443449325" fill="#16a34a" opacity="0.9"/>
<text x="555.8285714285714" y="300.86536556550675" text-anchor="middle" font-size="10" fill="#333">5,205</text>
<rect x="563.6285714285715" y="301.655103301282" width="15.6" height="68.344896698718" fill="#f59e0b" opacity="0.9"/>
<text x="571.4285714285714" y="297.655103301282" text-anchor="middle" font-size="10" fill="#333">5,462</text>
<rect x="579.2285714285714" y="301.0342888522165" width="15.6" height="68.96571114778351" fill="#dc2626" opacity="0.9"/>
<text x="587.0285714285714" y="297.0342888522165" text-anchor="middle" font-size="10" fill="#333">5,512</text>
<rect x="594.8285714285714" y="307.3601678224866" width="15.6" height="62.639832177513426" fill="#7c3aed" opacity="0.9"/>
<text x="602.6285714285714" y="303.3601678224866" text-anchor="middle" font-size="10" fill="#333">5,006</text>
<text x="571.4285714285714" y="392" text-anchor="middle" font-size="13" fill="#333">mvp-unique_shorten</text>
<rect x="643.8571428571428" y="243.46415166695172" width="15.6" height="126.53584833304828" fill="#2563eb" opacity="0.9"/>
<text x="651.6571428571427" y="239.46415166695172" text-anchor="middle" font-size="10" fill="#333">10,112</text>
<rect x="659.4571428571428" y="157.63149165117332" width="15.6" height="212.36850834882668" fill="#16a34a" opacity="0.9"/>
<text x="667.2571428571428" y="153.63149165117332" text-anchor="middle" font-size="10" fill="#333">16,972</text>
<rect x="675.0571428571428" y="145.71336379310912" width="15.6" height="224.28663620689088" fill="#f59e0b" opacity="0.9"/>
<text x="682.8571428571428" y="141.71336379310912" text-anchor="middle" font-size="10" fill="#333">17,924</text>
<rect x="690.6571428571427" y="139.40606407199755" width="15.6" height="230.59393592800245" fill="#dc2626" opacity="0.9"/>
<text x="698.4571428571427" y="135.40606407199755" text-anchor="middle" font-size="10" fill="#333">18,428</text>
<rect x="706.2571428571428" y="143.0987386427993" width="15.6" height="226.9012613572007" fill="#7c3aed" opacity="0.9"/>
<text x="714.0571428571427" y="139.0987386427993" text-anchor="middle" font-size="10" fill="#333">18,133</text>
<text x="682.8571428571429" y="392" text-anchor="middle" font-size="13" fill="#333">mvp_redirect</text>
<rect x="755.2857142857142" y="299.6068987449113" width="15.6" height="70.39310125508871" fill="#2563eb" opacity="0.9"/>
<text x="763.0857142857142" y="295.6068987449113" text-anchor="middle" font-size="10" fill="#333">5,626</text>
<rect x="770.8857142857142" y="271.75725743312546" width="15.6" height="98.24274256687454" fill="#16a34a" opacity="0.9"/>
<text x="778.6857142857142" y="267.75725743312546" text-anchor="middle" font-size="10" fill="#333">7,851</text>
<rect x="786.4857142857143" y="273.290044237401" width="15.6" height="96.70995576259901" fill="#f59e0b" opacity="0.9"/>
<text x="794.2857142857142" y="269.290044237401" text-anchor="middle" font-size="10" fill="#333">7,729</text>
<rect x="802.0857142857142" y="286.2893622699569" width="15.6" height="83.71063773004312" fill="#dc2626" opacity="0.9"/>
<text x="809.8857142857141" y="282.2893622699569" text-anchor="middle" font-size="10" fill="#333">6,690</text>
<rect x="817.6857142857142" y="279.65858741021054" width="15.6" height="90.34141258978946" fill="#7c3aed" opacity="0.9"/>
<text x="825.4857142857142" y="275.65858741021054" text-anchor="middle" font-size="10" fill="#333">7,220</text>
<text x="794.2857142857143" y="392" text-anchor="middle" font-size="13" fill="#333">mvp_shorten</text>
<line x1="70" y1="370" x2="850" y2="370" stroke="#333" stroke-width="1"/>
<rect x="70" y="420" width="14" height="14" fill="#2563eb"/>
<text x="90" y="431" font-size="12" fill="#333">c10</text>
<rect x="180" y="420" width="14" height="14" fill="#16a34a"/>
<text x="200" y="431" font-size="12" fill="#333">c50</text>
<rect x="290" y="420" width="14" height="14" fill="#f59e0b"/>
<text x="310" y="431" font-size="12" fill="#333">c100</text>
<rect x="400" y="420" width="14" height="14" fill="#dc2626"/>
<text x="420" y="431" font-size="12" fill="#333">c200</text>
<rect x="510" y="420" width="14" height="14" fill="#7c3aed"/>
<text x="530" y="431" font-size="12" fill="#333">c500</text>
</svg>